<!DOCTYPE svg PUBLIC "-//W3C//DTD SVG 1.1//EN" "http://www.w3.org/Graphics/SVG/1.1/DTD/svg11.dtd">
<!-- Uploaded to: SVG Repo, www.svgrepo.com, Transformed by: SVG Repo Mixer Tools -->
<svg fill="#7c3aed" height="800px" width="800px" version="1.1" id="Layer_1" xmlns="http://www.w3.org/2000/svg" xmlns:xlink="http://www.w3.org/1999/xlink" viewBox="0 0 472.615 472.615" xml:space="preserve" stroke="#7c3aed" stroke-width="0.00472615">
<g id="SVGRepo_bgCarrier" stroke-width="0"/>
<g id="SVGRepo_tracerCarrier" stroke-linecap="round" stroke-linejoin="round"/>
<g id="SVGRepo_iconCarrier"> <g> <g> <path d="M0,364.308v22.646l24.221,36.431h424.172l24.222-36.431v-22.646H0z M206.769,403.663h-19.692V383.97h19.692V403.663z M246.154,403.663h-19.692V383.97h19.692V403.663z M285.538,403.663h-19.692V383.97h19.692V403.663z"/> </g> </g> <g> <g> <path d="M157.538,108.278c-5.428,0-9.846,4.413-9.846,9.846v29.539c0,5.432,4.418,9.846,9.846,9.846 c5.428,0,9.846-4.414,9.846-9.846v-29.539C167.385,112.691,162.967,108.278,157.538,108.278z"/> </g> </g> <g> <g> <path d="M374.154,108.278c-5.428,0-9.846,4.413-9.846,9.846v29.539c0,5.432,4.418,9.846,9.846,9.846 c5.428,0,9.846-4.414,9.846-9.846v-29.539C384,112.691,379.582,108.278,374.154,108.278z"/> </g> </g> <g> <g> <path d="M19.692,49.231v295.385h433.231V49.231H19.692z M285.538,157.509h9.846v-39.385h-9.846V98.432h9.846v-9.846h19.692v68.923 h9.846v19.692h-39.385V157.509z M98.462,305.201H78.769v-19.692h19.692V305.201z M98.462,275.663H78.769V206.74h19.692V275.663z M108.308,177.201H68.923v-19.692h9.846v-39.385h-9.846V98.432h9.846v-9.846h19.692v68.923h9.846V177.201z M147.692,305.201H128 v-19.692h19.692V305.201z M147.692,275.663H128V255.97h19.692V275.663z M147.692,246.124H128V206.74h19.692V246.124z M128,147.663 v-29.539c0-16.288,13.25-29.538,29.538-29.538c16.288,0,29.538,13.25,29.538,29.538v29.539c0,16.288-13.25,29.538-29.538,29.538 C141.25,177.201,128,163.951,128,147.663z M196.923,305.201h-19.692v-68.923h19.692V305.201z M196.923,226.432h-19.692V206.74 h19.692V226.432z M246.154,305.201h-19.692v-39.385h19.692V305.201z M246.154,255.97h-19.692v-19.692h19.692V255.97z M246.154,226.432h-19.692V206.74h19.692V226.432z M256,177.201h-39.385v-19.692h9.846v-39.385h-9.846V98.432h9.846v-9.846h19.692 v68.923H256V177.201z M295.385,305.201h-19.692v-19.692h19.692V305.201z M295.385,275.663h-19.692V255.97h19.692V275.663z M295.385,246.124h-19.692V206.74h19.692V246.124z M344.615,305.201h-19.692v-19.692h19.692V305.201z M344.615,275.663h-19.692 V206.74h19.692V275.663z M393.846,305.201h-19.692v-68.923h19.692V305.201z M393.846,226.432h-19.692V206.74h19.692V226.432z M403.692,147.663c0,16.288-13.25,29.538-29.538,29.538c-16.289,0-29.539-13.25-29.539-29.538v-29.539 c0-16.288,13.25-29.538,29.539-29.538c16.288,0,29.538,13.25,29.538,29.538V147.663z"/> </g> </g> </g>
</svg>